<mxfile host="app.diagrams.net" modified="2023-10-01T11:59:58.026Z" agent="Mozilla/5.0 (Windows NT 10.0; Win64; x64) AppleWebKit/537.36 (KHTML, like Gecko) Chrome/116.0.0.0 Safari/537.36 OPR/102.0.0.0" etag="L5hpCX7Ay4rUpimWo-OR" version="22.0.0" type="device">
  <diagram name="Page-1" id="5f0bae14-7c28-e335-631c-24af17079c00">
    <mxGraphModel dx="1193" dy="624" grid="1" gridSize="10" guides="1" tooltips="1" connect="1" arrows="1" fold="1" page="1" pageScale="1" pageWidth="1100" pageHeight="850" background="none" math="0" shadow="0">
      <root>
        <mxCell id="0" />
        <mxCell id="1" parent="0" />
        <mxCell id="B2rJfK-_Js6M0tZcQULN-28" value="" style="rounded=0;whiteSpace=wrap;html=1;" vertex="1" parent="1">
          <mxGeometry x="70" y="10" width="1030" height="400" as="geometry" />
        </mxCell>
        <mxCell id="B2rJfK-_Js6M0tZcQULN-2" value="&amp;lt;&amp;lt;Настільний комп&#39;ютер&amp;gt;&amp;gt;" style="verticalAlign=top;align=center;spacingTop=8;spacingLeft=2;spacingRight=12;shape=cube;size=10;direction=south;fontStyle=4;html=1;rounded=0;shadow=0;comic=0;labelBackgroundColor=none;strokeWidth=1;fontFamily=Verdana;fontSize=12" vertex="1" parent="1">
          <mxGeometry x="90" y="40" width="270" height="285" as="geometry" />
        </mxCell>
        <mxCell id="39150e848f15840c-1" value="&amp;lt;&amp;lt;OC Windows,&lt;br&gt;OC Linux, OC MacOS&amp;gt;&amp;gt;" style="verticalAlign=top;align=center;spacingTop=8;spacingLeft=2;spacingRight=12;shape=cube;size=10;direction=south;fontStyle=4;html=1;rounded=0;shadow=0;comic=0;labelBackgroundColor=none;strokeWidth=1;fontFamily=Verdana;fontSize=12" parent="1" vertex="1">
          <mxGeometry x="122.5" y="90" width="205" height="210" as="geometry" />
        </mxCell>
        <mxCell id="39150e848f15840c-6" value="" style="ellipse;whiteSpace=wrap;html=1;rounded=0;shadow=0;comic=0;labelBackgroundColor=none;strokeWidth=1;fontFamily=Verdana;fontSize=12;align=center;" parent="1" vertex="1">
          <mxGeometry x="140" y="350" width="20" height="20" as="geometry" />
        </mxCell>
        <mxCell id="B2rJfK-_Js6M0tZcQULN-1" value="&amp;lt;&amp;lt;Веб-навігатор&amp;gt;&amp;gt;" style="verticalAlign=top;align=center;spacingTop=8;spacingLeft=2;spacingRight=12;shape=cube;size=10;direction=south;fontStyle=4;html=1;rounded=0;shadow=0;comic=0;labelBackgroundColor=none;strokeWidth=1;fontFamily=Verdana;fontSize=12" vertex="1" parent="1">
          <mxGeometry x="145" y="150" width="160" height="140" as="geometry" />
        </mxCell>
        <mxCell id="39150e848f15840c-5" value="*.js&lt;br&gt;(Angular)" style="shape=component;align=left;spacingLeft=36;rounded=0;shadow=0;comic=0;labelBackgroundColor=none;strokeWidth=1;fontFamily=Verdana;fontSize=12;html=1;" parent="1" vertex="1">
          <mxGeometry x="160" y="200" width="120" height="60" as="geometry" />
        </mxCell>
        <mxCell id="B2rJfK-_Js6M0tZcQULN-3" style="rounded=0;orthogonalLoop=1;jettySize=auto;html=1;entryX=1.004;entryY=0.773;entryDx=0;entryDy=0;entryPerimeter=0;endArrow=none;endFill=0;" edge="1" parent="1" source="39150e848f15840c-6" target="B2rJfK-_Js6M0tZcQULN-2">
          <mxGeometry relative="1" as="geometry" />
        </mxCell>
        <mxCell id="B2rJfK-_Js6M0tZcQULN-4" value="" style="ellipse;whiteSpace=wrap;html=1;rounded=0;shadow=0;comic=0;labelBackgroundColor=none;strokeWidth=1;fontFamily=Verdana;fontSize=12;align=center;" vertex="1" parent="1">
          <mxGeometry x="255" y="350" width="20" height="20" as="geometry" />
        </mxCell>
        <mxCell id="B2rJfK-_Js6M0tZcQULN-5" style="rounded=0;orthogonalLoop=1;jettySize=auto;html=1;entryX=0.999;entryY=0.35;entryDx=0;entryDy=0;entryPerimeter=0;endArrow=none;endFill=0;" edge="1" parent="1" source="B2rJfK-_Js6M0tZcQULN-4" target="B2rJfK-_Js6M0tZcQULN-2">
          <mxGeometry relative="1" as="geometry" />
        </mxCell>
        <mxCell id="B2rJfK-_Js6M0tZcQULN-6" value="Клавіатура" style="text;html=1;strokeColor=none;fillColor=none;align=center;verticalAlign=middle;whiteSpace=wrap;rounded=0;" vertex="1" parent="1">
          <mxGeometry x="120" y="370" width="60" height="30" as="geometry" />
        </mxCell>
        <mxCell id="B2rJfK-_Js6M0tZcQULN-8" value="Маніпулятор &quot;миша&quot;" style="text;html=1;strokeColor=none;fillColor=none;align=center;verticalAlign=middle;whiteSpace=wrap;rounded=0;" vertex="1" parent="1">
          <mxGeometry x="227.5" y="370" width="75" height="30" as="geometry" />
        </mxCell>
        <mxCell id="B2rJfK-_Js6M0tZcQULN-13" value="&amp;lt;&amp;lt;Сервер 1&amp;gt;&amp;gt;" style="verticalAlign=top;align=center;spacingTop=8;spacingLeft=2;spacingRight=12;shape=cube;size=10;direction=south;fontStyle=4;html=1;rounded=0;shadow=0;comic=0;labelBackgroundColor=none;strokeWidth=1;fontFamily=Verdana;fontSize=12" vertex="1" parent="1">
          <mxGeometry x="450" y="40" width="270" height="285" as="geometry" />
        </mxCell>
        <mxCell id="B2rJfK-_Js6M0tZcQULN-14" value="&amp;lt;&amp;lt;OC Linux&amp;gt;&amp;gt;" style="verticalAlign=top;align=center;spacingTop=8;spacingLeft=2;spacingRight=12;shape=cube;size=10;direction=south;fontStyle=4;html=1;rounded=0;shadow=0;comic=0;labelBackgroundColor=none;strokeWidth=1;fontFamily=Verdana;fontSize=12" vertex="1" parent="1">
          <mxGeometry x="482.5" y="90" width="205" height="210" as="geometry" />
        </mxCell>
        <mxCell id="B2rJfK-_Js6M0tZcQULN-15" value="&amp;lt;&amp;lt;Application Server&lt;br&gt;Apache Tomcat&amp;gt;&amp;gt;" style="verticalAlign=top;align=center;spacingTop=8;spacingLeft=2;spacingRight=12;shape=cube;size=10;direction=south;fontStyle=4;html=1;rounded=0;shadow=0;comic=0;labelBackgroundColor=none;strokeWidth=1;fontFamily=Verdana;fontSize=12" vertex="1" parent="1">
          <mxGeometry x="505" y="150" width="160" height="140" as="geometry" />
        </mxCell>
        <mxCell id="B2rJfK-_Js6M0tZcQULN-16" value="*.jar" style="shape=component;align=left;spacingLeft=36;rounded=0;shadow=0;comic=0;labelBackgroundColor=none;strokeWidth=1;fontFamily=Verdana;fontSize=12;html=1;" vertex="1" parent="1">
          <mxGeometry x="525" y="205" width="120" height="60" as="geometry" />
        </mxCell>
        <mxCell id="B2rJfK-_Js6M0tZcQULN-17" value="&amp;lt;&amp;lt;Сервер 2&amp;gt;&amp;gt;" style="verticalAlign=top;align=center;spacingTop=8;spacingLeft=2;spacingRight=12;shape=cube;size=10;direction=south;fontStyle=4;html=1;rounded=0;shadow=0;comic=0;labelBackgroundColor=none;strokeWidth=1;fontFamily=Verdana;fontSize=12" vertex="1" parent="1">
          <mxGeometry x="810" y="40" width="270" height="285" as="geometry" />
        </mxCell>
        <mxCell id="B2rJfK-_Js6M0tZcQULN-18" value="&amp;lt;&amp;lt;OC Linux&amp;gt;&amp;gt;" style="verticalAlign=top;align=center;spacingTop=8;spacingLeft=2;spacingRight=12;shape=cube;size=10;direction=south;fontStyle=4;html=1;rounded=0;shadow=0;comic=0;labelBackgroundColor=none;strokeWidth=1;fontFamily=Verdana;fontSize=12" vertex="1" parent="1">
          <mxGeometry x="842.5" y="90" width="205" height="210" as="geometry" />
        </mxCell>
        <mxCell id="B2rJfK-_Js6M0tZcQULN-19" value="&amp;lt;&amp;lt;Database Server &lt;br&gt;PostgreSQL&amp;gt;&amp;gt;" style="verticalAlign=top;align=center;spacingTop=8;spacingLeft=2;spacingRight=12;shape=cube;size=10;direction=south;fontStyle=4;html=1;rounded=0;shadow=0;comic=0;labelBackgroundColor=none;strokeWidth=1;fontFamily=Verdana;fontSize=12" vertex="1" parent="1">
          <mxGeometry x="865" y="150" width="160" height="140" as="geometry" />
        </mxCell>
        <mxCell id="B2rJfK-_Js6M0tZcQULN-21" value="Relation DataBase" style="shape=cylinder3;whiteSpace=wrap;html=1;boundedLbl=1;backgroundOutline=1;size=10.166666666666657;" vertex="1" parent="1">
          <mxGeometry x="895" y="205" width="100" height="60" as="geometry" />
        </mxCell>
        <mxCell id="B2rJfK-_Js6M0tZcQULN-22" style="edgeStyle=orthogonalEdgeStyle;rounded=0;orthogonalLoop=1;jettySize=auto;html=1;exitX=0;exitY=0;exitDx=137.5;exitDy=0;exitPerimeter=0;entryX=0.483;entryY=1.002;entryDx=0;entryDy=0;entryPerimeter=0;endArrow=none;endFill=0;" edge="1" parent="1" source="B2rJfK-_Js6M0tZcQULN-2" target="B2rJfK-_Js6M0tZcQULN-13">
          <mxGeometry relative="1" as="geometry" />
        </mxCell>
        <mxCell id="B2rJfK-_Js6M0tZcQULN-23" style="edgeStyle=orthogonalEdgeStyle;rounded=0;orthogonalLoop=1;jettySize=auto;html=1;exitX=0;exitY=0;exitDx=137.5;exitDy=0;exitPerimeter=0;entryX=0.483;entryY=1.002;entryDx=0;entryDy=0;entryPerimeter=0;endArrow=none;endFill=0;" edge="1" parent="1" source="B2rJfK-_Js6M0tZcQULN-13" target="B2rJfK-_Js6M0tZcQULN-17">
          <mxGeometry relative="1" as="geometry" />
        </mxCell>
        <mxCell id="B2rJfK-_Js6M0tZcQULN-24" value="" style="endArrow=none;dashed=1;html=1;dashPattern=1 3;strokeWidth=2;rounded=0;" edge="1" parent="1">
          <mxGeometry width="50" height="50" relative="1" as="geometry">
            <mxPoint x="400" y="390" as="sourcePoint" />
            <mxPoint x="400" y="20" as="targetPoint" />
          </mxGeometry>
        </mxCell>
        <mxCell id="B2rJfK-_Js6M0tZcQULN-25" value="" style="endArrow=none;dashed=1;html=1;dashPattern=1 3;strokeWidth=2;rounded=0;" edge="1" parent="1">
          <mxGeometry width="50" height="50" relative="1" as="geometry">
            <mxPoint x="770" y="390" as="sourcePoint" />
            <mxPoint x="770" y="20" as="targetPoint" />
          </mxGeometry>
        </mxCell>
      </root>
    </mxGraphModel>
  </diagram>
</mxfile>
